[URL=http://imageshack.us/photo/my-images/51/spideybanner3.jpg/][IMG]http://img51.imageshack.us/img51/701/spideybanner3.jpg[/IMG][/URL]
-=-=-=-=-=-=-=-=-=-=-=-=-=-=-=-
[b]No. EP# Episode title Director(s) Writer(s) U.S. Original airdate Prod. code =============================================================================[/b]
3 3 "Doomed" TBA TBA April 8, 2012 103 
h**p://www.imdb.com/title/tt1722512/
-=-=-=-=-=-=-=-=-=-=-=-=-=-=-=-
File info
----------
Format                           : Matroska
File size                        : 728 MiB
Duration                         : 22mn 8s
Overall bit rate                 : 4 596 Kbps
Encoded date                     : UTC 2012-04-09 07:21:48
Writing application              : mkvmerge v5.5.0 ('Healer') built on Apr  6 2012 21:43:24
Writing library                  : libebml v1.2.3 + libmatroska v1.3.0

Video
ID                               : 1
Format                           : AVC
Format/Info                      : Advanced Video Codec
Format profile                   : High@L3.1
Format settings, CABAC           : No
Format settings, ReFrames        : 2 frames
Muxing mode                      : Header stripping
Codec ID                         : V_MPEG4/ISO/AVC
Duration                         : 22mn 8s
Bit rate                         : 4 121 Kbps
Width                            : 1 280 pixels
Height                           : 720 pixels
Display aspect ratio             : 16:9
Frame rate                       : 23.976 fps
Color space                      : YUV
Chroma subsampling               : 4:2:0
Bit depth                        : 8 bits
Scan type                        : Progressive
Bits/(Pixel*Frame)               : 0.186
Stream size                      : 653 MiB (90%)
Language                         : English
Color primaries                  : BT.709-5, BT.1361, IEC 61966-2-4, SMPTE RP177
Transfer characteristics         : BT.709-5, BT.1361
Matrix coefficients              : BT.709-5, BT.1361, IEC 61966-2-4 709, SMPTE RP177

Audio
ID                               : 2
Format                           : AC-3
Format/Info                      : Audio Coding 3
Mode extension                   : CM (complete main)
Muxing mode                      : Header stripping
Codec ID                         : A_AC3
Duration                         : 22mn 8s
Bit rate mode                    : Constant
Bit rate                         : 384 Kbps
Channel(s)                       : 6 channels
Channel positions                : Front: L C R, Side: L R, LFE
Sampling rate                    : 48.0 KHz
Bit depth                        : 16 bits
Compression mode                 : Lossy
Stream size                      : 60.8 MiB (8%)
Language                         : English
Format: mkv
-=-=-=-=-=-=-=-=-=-=-=-=-=-=-=-
Screenshots
-----------
[URL=http://imageshack.us/photo/my-images/39/ultimatespidermans01e03.jpg/][IMG]http://img39.imageshack.us/img39/5969/ultimatespidermans01e03.jpg[/IMG][/URL]
-=-=-=-=-=-=-=-=-=-=-=-=-=-=-=-
Hash:
-----
29272A21BFFD22F79012EEA36B4F30C851DEC222
-=-=-=-=-=-=-=-=-=-=-=-=-=-=-=-
